HIERARCHY
ROOT RootJoint
{
    OFFSET   0.000000   0.000000   0.000000
    CHANNELS 6 Xposition Yposition Zposition Xrotation Yrotation Zrotation
    JOINT pelvis_lowerback
    {
        OFFSET   0.000000   0.093605   0.000000
        CHANNELS 3 Xrotation Yrotation Zrotation
        JOINT lowerback_torso
        {
            OFFSET   0.000000   0.100000   0.000000
            CHANNELS 3 Xrotation Yrotation Zrotation
            JOINT torso_head
            {
                OFFSET   0.000000   0.282350   0.000000
                CHANNELS 3 Xrotation Yrotation Zrotation
                End Site
                {
                    OFFSET   0.000000   0.192650   0.000000
                }
            }
            JOINT rTorso_Clavicle
            {
                OFFSET  -0.001000   0.157500   0.000000
                CHANNELS 3 Xrotation Yrotation Zrotation
                JOINT rShoulder
                {
                    OFFSET  -0.117647   0.000000   0.000000
                    CHANNELS 3 Xrotation Yrotation Zrotation
                    JOINT rElbow
                    {
                        OFFSET  -0.245000   0.000000   0.000000
                        CHANNELS 3 Xrotation Yrotation Zrotation
                        JOINT rWrist
                        {
                            OFFSET  -0.240000   0.000000   0.000000
                            CHANNELS 3 Xrotation Yrotation Zrotation
                            End Site
                            {
                                OFFSET  -0.116353  -0.002500   0.000000
                            }
                        }
                    }
                }
            }
            JOINT lTorso_Clavicle
            {
                OFFSET   0.001000   0.157500   0.000000
                CHANNELS 3 Xrotation Yrotation Zrotation
                JOINT lShoulder
                {
                    OFFSET   0.117647   0.000000   0.000000
                    CHANNELS 3 Xrotation Yrotation Zrotation
                    JOINT lElbow
                    {
                        OFFSET   0.245000   0.000000   0.000000
                        CHANNELS 3 Xrotation Yrotation Zrotation
                        JOINT lWrist
                        {
                            OFFSET   0.240000   0.000000   0.000000
                            CHANNELS 3 Xrotation Yrotation Zrotation
                            End Site
                            {
                                OFFSET   0.116353  -0.002500   0.000000
                            }
                        }
                    }
                }
            }
        }
    }
    JOINT rHip
    {
        OFFSET  -0.100000  -0.051395   0.000000
        CHANNELS 3 Xrotation Yrotation Zrotation
        JOINT rKnee
        {
            OFFSET   0.000000  -0.410000   0.000000
            CHANNELS 3 Xrotation Yrotation Zrotation
            JOINT rAnkle
            {
                OFFSET   0.000000  -0.390000   0.000000
                CHANNELS 3 Xrotation Yrotation Zrotation
                JOINT rToeJoint
                {
                    OFFSET   0.000000  -0.050000   0.130000
                    CHANNELS 3 Xrotation Yrotation Zrotation
                    End Site
                    {
                        OFFSET  -0.010000   0.002000   0.060000
                    }
                }
            }
        }
    }
    JOINT lHip
    {
        OFFSET   0.100000  -0.051395   0.000000
        CHANNELS 3 Xrotation Yrotation Zrotation
        JOINT lKnee
        {
            OFFSET   0.000000  -0.410000   0.000000
            CHANNELS 3 Xrotation Yrotation Zrotation
            JOINT lAnkle
            {
                OFFSET   0.000000  -0.390000   0.000000
                CHANNELS 3 Xrotation Yrotation Zrotation
                JOINT lToeJoint
                {
                    OFFSET   0.000000  -0.050000   0.130000
                    CHANNELS 3 Xrotation Yrotation Zrotation
                    End Site
                    {
                        OFFSET   0.010000   0.002000   0.060000
                    }
                }
            }
        }
    }
}
MOTION
Frames: 14
Frame Time:   0.008333
 -2.376719   0.925631   3.975860   0.000000   0.000000   0.000000   0.000000   0.000000   0.000000   0.000000   0.000000   0.000000   0.000000   0.000000   0.000000   0.000000   0.000000   0.000000   0.000000   0.000000   0.000000   0.000000   0.000000   0.000000   0.000000   0.000000   0.000000   0.000000   0.000000   0.000000   0.000000   0.000000   0.000000   0.000000   0.000000   0.000000   0.000000   0.000000   0.000000   0.000000   0.000000   0.000000   0.000000   0.000000   0.000000   0.000000   0.000000   0.000000   0.000000   0.000000   0.000000   0.000000   0.000000   0.000000   0.000000   0.000000   0.000000   0.000000   0.000000   0.000000   0.000000   0.000000   0.000000
 -2.376558   0.926377   3.976238  -0.684541   0.108739   0.019627   0.689269   0.060680   0.022486   0.128984  -0.182838  -0.019647  -0.142435   0.126764   0.029054   0.137817  -0.251086   0.542941   0.941471   0.374328   1.930905   0.015006   0.685630  -0.007342   0.589890  -0.523905  -2.771070   0.215622   0.140540  -0.836851   1.219090  -0.299135  -1.748954   0.010731  -0.477150   0.006576   0.604632   0.352556   2.873024   0.580497   0.031908  -0.171335   0.816450   0.001097   0.000995  -1.068627  -0.347517  -0.036143  -0.152285  -0.000248   0.000273   0.537400  -0.074166   0.111469   0.790811  -0.000896   0.000247  -0.852299   0.027050   0.001794   0.317987  -0.000366   0.000170
 -2.376387   0.927618   3.976797  -1.412219   0.249431   0.050865   1.316966   0.106901   0.045527   0.300246  -0.381125  -0.048816  -0.261877   0.249276   0.066567   0.277905  -0.418100   1.841717   1.848914   0.843894   4.470761   0.035219   1.366519  -0.012648   1.206194  -0.821795  -4.775193   0.430780   0.175744  -2.466319   2.402999  -0.710443  -4.145034   0.025603  -0.958665   0.011536   1.248395   0.534991   4.956520   1.218117   0.055165  -0.466578   1.727141   0.003055   0.002038  -2.068106  -0.676271  -0.077658  -0.348435  -0.000725   0.000491   1.117136  -0.136420   0.336072   1.664002  -0.002618   0.000860  -1.647574   0.054165   0.004419   0.574884  -0.000862   0.000378
 -2.376234   0.928899   3.977478  -2.103676   0.393921   0.089829   1.869113   0.142611   0.060722   0.441883  -0.576597  -0.086461  -0.377473   0.363878   0.106277   0.410364  -0.519661   3.596678   2.712822   1.391946   7.410213   0.055316   2.017535  -0.015981   1.802275  -0.989270  -5.897699   0.628022   0.139485  -4.557122   3.540578  -1.220379  -6.962032   0.040725  -1.425635   0.014874   1.873722   0.589670   6.118282   1.847263   0.069028  -0.855574   2.612010   0.005280   0.002712  -2.999851  -0.983860  -0.122537  -0.531783  -0.001222   0.000617   1.682589  -0.184751   0.658977   2.505896  -0.004661   0.001544  -2.389082   0.081297   0.008125   0.805718  -0.001408   0.000565
 -2.376101   0.929890   3.978249  -2.747460   0.528863   0.133431   2.357262   0.172258   0.065899   0.549202  -0.763759  -0.131985  -0.492550   0.470850   0.145470   0.535285  -0.579431   5.603290   3.531800   2.009392  10.615193   0.072776   2.634492  -0.017898   2.377555  -1.071602  -6.368473   0.805765   0.061612  -6.893155   4.630685  -1.819345 -10.055571   0.054136  -1.873032   0.017009   2.479429   0.551718   6.601454   2.452932   0.074011  -1.316155   3.449399   0.007433   0.002969  -3.869956  -1.271402  -0.169738  -0.705565  -0.001697   0.000696   2.222992  -0.221373   1.063181   3.298766  -0.006702   0.002155  -3.081698   0.108074   0.012829   1.010722  -0.001914   0.000698
 -2.375986   0.930347   3.979086  -3.344785   0.648167   0.179276   2.792528   0.198172   0.061236   0.629066  -0.940608  -0.184515  -0.605580   0.570643   0.182922   0.653087  -0.614129   7.724934   4.304040   2.687980  13.993894   0.086553   3.215809  -0.018839   2.931770  -1.097542  -6.404305   0.964395  -0.038127  -9.333422   5.671422  -2.498730 -13.328614   0.064942  -2.298095   0.018286   3.064186   0.450515   6.633416   3.030953   0.071128  -1.830789   4.236959   0.009334   0.002879  -4.682804  -1.540020  -0.218419  -0.870044  -0.002118   0.000749   2.736527  -0.248297   1.532170   4.042341  -0.008557   0.002643  -3.728749   0.134181   0.018373   1.193065  -0.002335   0.000777
 -2.375933   0.930076   3.979971  -3.899329   0.749364   0.229031   3.184356   0.221089   0.039540   0.689206  -1.107253  -0.260061  -0.715189   0.663709   0.222916   0.764493  -0.633846   9.880056   5.027368   3.421761  17.490540   0.096446   3.761674  -0.019131   3.464349  -1.085304  -6.156284   1.106606  -0.149726 -11.843810   6.601765  -3.210939 -16.550436   0.072722  -2.702234   0.018758   3.629409   0.289138   6.291506   3.580030   0.061511  -2.383923   4.976377   0.010870   0.002542  -5.442276  -1.790851  -0.267960  -1.025403  -0.002464   0.000785   3.223309  -0.267168   2.052081   4.739324  -0.010158   0.003005  -4.333159   0.159338   0.024521   1.355863  -0.002663   0.000809
 -2.375840   0.928301   3.980201  -4.057867   0.760992   0.242997   3.281295   0.246333   0.079345   0.709416  -1.232208  -0.354615  -0.999995   0.584763   0.183834   0.936682  -0.455835  11.451800   5.739319   4.083756  20.691061   0.104932   4.414490  -0.021180   3.916972  -0.963151  -4.696166   1.309236  -0.266512 -13.505183   7.351217  -3.911304 -19.811171   0.078830  -3.168285   0.019775   4.140178  -0.075465   4.809552   3.557604  -0.216713  -2.874681   5.817966   0.012046  -0.000442  -5.779539  -2.100258  -0.071589  -0.944919  -0.001755   0.000227   3.329671  -0.190209   2.542964   4.914851  -0.008872   0.002638  -4.545461   0.179902  -0.047612   1.574076  -0.002938   0.000901
 -2.375726   0.925263   3.980143  -4.167794   0.763395   0.248086   3.415603   0.269986   0.128128   0.719844  -1.338721  -0.437294  -1.281788   0.502510   0.139676   1.070743  -0.234911  12.712994   6.361023   4.765107  23.532556   0.106960   5.037317  -0.022600   4.360561  -0.758159  -3.346615   1.479334  -0.403628 -14.837113   8.011510  -4.610564 -22.709697   0.079982  -3.609728   0.020302   4.627298  -0.499140   3.421113   3.478892  -0.493154  -3.318987   6.585595   0.012354  -0.002707  -6.087756  -2.393782   0.109632  -0.830059  -0.001124  -0.000392   3.348474  -0.119355   2.986403   4.973699  -0.007320   0.002180  -4.745813   0.199096  -0.115097   1.787273  -0.003045   0.000940
 -2.375596   0.921104   3.979945  -4.260924   0.764394   0.248158   3.574762   0.299189   0.180890   0.742131  -1.429286  -0.507411  -1.540300   0.425144   0.097276   1.172906   0.000843  13.749241   6.902967   5.443714  26.078772   0.104788   5.626559  -0.023369   4.787625  -0.519881  -2.253906   1.619613  -0.550118 -15.932351   8.592813  -5.297016 -25.303874   0.077957  -4.025025   0.020304   5.088849  -0.924642   2.296337   3.395796  -0.751058  -3.720643   7.290044   0.012100  -0.004232  -6.375035  -2.668738   0.277131  -0.722297  -0.000664  -0.000824   3.314005  -0.055288   3.382830   4.992912  -0.005920   0.001766  -4.934344   0.216896  -0.178154   1.981053  -0.002987   0.000937
 -2.375454   0.915922   3.979692  -4.343554   0.766044   0.244559   3.745394   0.335128   0.236499   0.774294  -1.504978  -0.566120  -1.775971   0.353034   0.057246   1.251653   0.235880  14.615247   7.377088   6.104474  28.378738   0.099977   6.180514  -0.023530   5.195983  -0.273537  -1.376310   1.738395  -0.693018 -16.847289   9.106980  -5.958235 -27.644090   0.073957  -4.412993   0.019817   5.525207  -1.331162   1.395437   3.320883  -0.991203  -4.082130   7.942917   0.011503  -0.005191  -6.642771  -2.925941   0.432124  -0.622435  -0.000339  -0.001104   3.243180   0.002758   3.734786   4.991535  -0.004732   0.001413  -5.110867   0.233395  -0.237094   2.158997  -0.002826   0.000908
 -2.375324   0.916193   3.979835  -4.598241   0.830696   0.403977   4.006718   0.351578   0.163635   0.884860  -1.587457  -0.671818  -1.990945   0.284808   0.014202   1.323358   0.466020  15.738418   7.790796   6.744078  30.596151   0.095385   6.686402  -0.023119   5.584305  -0.107699  -0.726442   1.836737  -0.844759 -17.960600   9.555635  -6.601839 -29.853666   0.069958  -4.765501   0.018792   5.937986  -1.629052   0.757160   3.265445  -1.024821  -4.288586   8.651944   0.009459  -0.004216  -7.016423  -2.939217   0.803390  -0.580564  -0.000389  -0.000884   3.262267  -0.014086   3.593124   5.452929  -0.003789   0.001462  -5.067851   0.146527  -0.546306   1.660210  -0.003564   0.000795
 -2.375309   0.916446   3.980120  -4.759223   0.962396   0.553657   4.168659   0.360756   0.118420   0.955612  -1.670255  -0.767911  -2.184416   0.220993  -0.031793   1.405422   0.655653  16.613696   8.162307   7.348773  32.670522   0.089393   7.167178  -0.022397   5.952635   0.115285   0.085422   1.938738  -0.965171 -18.835781   9.956412  -7.214706 -31.925955   0.065174  -5.104448   0.017433   6.329912  -1.994911  -0.022497   3.207277  -1.152179  -4.447428   9.197647   0.007599  -0.003481  -7.338097  -3.082006   0.944310  -0.520657  -0.000377  -0.000785   3.275885   0.052475   3.469307   5.728990  -0.003011   0.001710  -5.071028   0.163945  -0.620232   1.657140  -0.002853   0.000629
 -2.375602   0.916733   3.980342  -4.803605   1.089511   0.674748   4.274486   0.401117  -0.016747   0.970529  -1.698045  -0.764036  -2.354565   0.119911  -0.043242   1.474601   0.743539  17.061621   8.458935   7.922294  34.292918   0.080439   7.628062  -0.021307   6.265822   0.532084   1.551991   2.084523  -1.020194 -19.187872  10.141386  -7.818366 -33.658151   0.061986  -5.602697   0.016312   6.675938  -2.412044  -1.428343   3.146199  -1.266725  -4.558762   9.485939   0.006058  -0.002790  -7.531104  -3.148232   1.009322  -0.460655  -0.000338  -0.000657   3.273566   0.069985   3.386679   5.804199  -0.002416   0.001474  -5.096585   0.151560  -0.679697   1.821620  -0.002230   0.000714
